# xmcd
#
# Track frame offsets:
#	150
#	24345
#	43493
#	59855
#	77190
#	99149
#	115113
#	132151
#	147891
#	170289
#	187982
#	209353
#
# Disc length: 3303 seconds
#
# Revision: 0
# Processed by: cddbd v1.5PL3 Copyright (c) Steve Scherf et al.
# Submitted via: dBpowerAMP V4.0
#
DISCID=a50ce50c
DTITLE=Keith Urban - Golden Road
DYEAR=1900
DGENRE=Country/Rock
TTITLE0=Somebody Like You
TTITLE1=Who Wouldn't Wanna Be Me
TTITLE2=Whenever I Run
TTITLE3=What About Me
TTITLE4=You'll Think Of Me
TTITLE5=Jeans On
TTITLE6=You Look Good In My Shirt
TTITLE7=You're Not Alone Tonight
TTITLE8=You Won
TTITLE9=Song For Dad
TTITLE10=Raining On Sunday
TTITLE11=You're Not My God
EXTD=
EXTT0=
EXTT1=
EXTT2=
EXTT3=
EXTT4=
EXTT5=
EXTT6=
EXTT7=
EXTT8=
EXTT9=
EXTT10=
EXTT11=
PLAYORDER=
